<?xml version="1.0" encoding="UTF-8" standalone="no"?>
<!-- Created with Inkscape (http://www.inkscape.org/) -->

<svg
   width="158.39062"
   height="256.39813"
   viewBox="0 0 158.39062 256.39813"
   version="1.1"
   id="svg1"
   inkscape:version="1.4 (86a8ad7, 2024-10-11)"
   sodipodi:docname="ringo.svg"
   xmlns:inkscape="http://www.inkscape.org/namespaces/inkscape"
   xmlns:sodipodi="http://sodipodi.sourceforge.net/DTD/sodipodi-0.dtd"
   xmlns="http://www.w3.org/2000/svg"
   xmlns:svg="http://www.w3.org/2000/svg">
  <sodipodi:namedview
     id="namedview1"
     pagecolor="#ffffff"
     bordercolor="#000000"
     borderopacity="0.25"
     inkscape:showpageshadow="2"
     inkscape:pageopacity="0.0"
     inkscape:pagecheckerboard="0"
     inkscape:deskcolor="#2b2b2b"
     inkscape:document-units="px"
     inkscape:zoom="2.2511408"
     inkscape:cx="109.72215"
     inkscape:cy="73.962499"
     inkscape:window-width="1920"
     inkscape:window-height="1017"
     inkscape:window-x="1912"
     inkscape:window-y="-8"
     inkscape:window-maximized="1"
     inkscape:current-layer="layer1" />
  <defs
     id="defs1">
    <inkscape:path-effect
       effect="mirror_symmetry"
       start_point="128.9668,-15.041016"
       end_point="128.9668,241.35712"
       center_point="128.9668,113.15805"
       id="path-effect2"
       is_visible="true"
       lpeversion="1.2"
       lpesatellites=""
       mode="vertical"
       discard_orig_path="false"
       fuse_paths="true"
       oposite_fuse="false"
       split_items="false"
       split_open="false"
       link_styles="false" />
  </defs>
  <g
     inkscape:label="Layer 1"
     inkscape:groupmode="layer"
     id="layer1"
     inkscape:path-effect="#path-effect2"
     transform="translate(-49.771484,15.041016)">
    <path
       sodipodi:type="arc"
       style="fill:#f79617;stroke:#2e222f;stroke-width:8;stroke-linecap:round;stroke-linejoin:round;stroke-miterlimit:9.8"
       id="path9"
       sodipodi:cx="91.245712"
       sodipodi:cy="228.71909"
       sodipodi:rx="30.609348"
       sodipodi:ry="8.6380367"
       d="m 121.85506,228.71909 c 0,4.77065 -13.70427,8.63803 -30.609348,8.63803 -16.905076,0 -30.609348,-3.86738 -30.609348,-8.63803 0,-4.77066 13.704272,-8.63804 30.609348,-8.63804 16.905078,0 30.609348,3.86738 30.609348,8.63804 z m 14.22347,0 c 0,4.77065 13.70427,8.63803 30.60935,8.63803 16.90508,0 30.60935,-3.86738 30.60935,-8.63803 0,-4.77066 -13.70427,-8.63804 -30.60935,-8.63804 -16.90508,0 -30.60935,3.86738 -30.60935,8.63804 z" />
    <path
       sodipodi:type="arc"
       style="fill:#3e3546;stroke:#2e222f;stroke-width:8;stroke-linecap:round;stroke-linejoin:round;stroke-miterlimit:9.8"
       id="path7"
       sodipodi:cx="127.23018"
       sodipodi:cy="163.31337"
       sodipodi:rx="54.337791"
       sodipodi:ry="68.730377"
       d="m 127.23047,94.582031 c -30.009935,0 -54.337892,30.771729 -54.337892,68.730469 0,37.95874 24.327957,68.73047 54.337892,68.73047 0.58105,0 1.15967,-0.0103 1.73633,-0.0332 0.57665,0.0229 1.15528,0.0332 1.73632,0.0332 30.00994,0 54.3379,-30.77173 54.3379,-68.73047 0,-37.95874 -24.32796,-68.730469 -54.3379,-68.730469 -0.58104,0 -1.15967,0.01226 -1.73632,0.03516 -0.57666,-0.0229 -1.15528,-0.03516 -1.73633,-0.03516 z" />
    <path
       sodipodi:type="arc"
       style="fill:#e83b3b;stroke:#2e222f;stroke-width:8;stroke-linecap:round;stroke-linejoin:round;stroke-miterlimit:9.8"
       id="path8"
       sodipodi:cx="127.23018"
       sodipodi:cy="194.87085"
       sodipodi:rx="51.132565"
       sodipodi:ry="37.172653"
       d="m 127.23047,157.69727 c -28.239737,0 -51.132814,16.64393 -51.132814,37.17382 0,20.52989 22.893077,37.17188 51.132814,37.17188 0.58119,0 1.15982,-0.006 1.73633,-0.0195 0.5765,0.014 1.15514,0.0195 1.73632,0.0195 28.23974,0 51.13282,-16.64199 51.13282,-37.17188 0,-20.52989 -22.89308,-37.17382 -51.13282,-37.17382 -0.58118,0 -1.15982,0.007 -1.73632,0.0215 -0.57651,-0.014 -1.15514,-0.0215 -1.73633,-0.0215 z" />
    <path
       style="fill:#3e3546;stroke:#2e222f;stroke-width:8.25442;stroke-linecap:round;stroke-linejoin:round;stroke-miterlimit:9.8"
       id="path1"
       sodipodi:type="arc"
       sodipodi:cx="126.42913"
       sodipodi:cy="70.384613"
       sodipodi:rx="59.872791"
       sodipodi:ry="60.115578"
       d="m 126.42969,10.269531 c -33.066832,0 -59.873049,26.914318 -59.873049,60.115235 0,33.200914 26.806217,60.115234 59.873049,60.115234 0.85014,0 1.69559,-0.0175 2.53711,-0.0527 0.84151,0.0352 1.68696,0.0527 2.53711,0.0527 33.06683,0 59.87304,-26.91432 59.87304,-60.115234 0,-33.200917 -26.80621,-60.115235 -59.87304,-60.115235 -0.85015,0 -1.6956,0.0175 -2.53711,0.05274 -0.84152,-0.03523 -1.68697,-0.05274 -2.53711,-0.05274 z" />
    <path
       id="path5"
       style="display:inline;fill:#e83b3b;stroke:#2e222f;stroke-width:8;stroke-linecap:round;stroke-linejoin:round;stroke-miterlimit:9.8"
       d="m 98.222656,28.275391 c -15.870783,-2e-6 -27.230469,25.871022 -27.230469,48.832031 0,22.961008 19.03402,34.771078 33.066403,42.185548 4.89492,2.58639 10.07366,5.60898 23.5918,5.32226 0.45232,-0.01 0.89121,-0.0252 1.31641,-0.0449 0.42519,0.0197 0.86408,0.0353 1.3164,0.0449 13.51814,0.28672 18.69688,-2.73587 23.5918,-5.32226 14.03239,-7.41447 33.06641,-19.22454 33.06641,-42.185548 0,-22.961009 -11.35969,-48.832033 -27.23047,-48.832031 -8.7577,3e-6 -21.27898,15.5592 -30.74414,33.363281 C 119.50164,43.834591 106.98035,28.275394 98.222656,28.275391 Z"
       inkscape:original-d="m 142.32568,102.3321 c 0,14.85879 1.83455,21.93203 -14.67495,22.28219 -13.51814,0.28672 -18.69668,-2.73463 -23.5916,-5.32102 -14.032387,-7.41447 -33.06656,-19.22401 -33.066559,-42.185022 0,-22.961009 11.358657,-48.832137 27.22944,-48.832135 15.870779,6e-6 44.103669,51.094985 44.103669,74.055987 z"
       sodipodi:nodetypes="ssssss" />
    <path
       style="fill:#ffffff;stroke:#2e222f;stroke-width:8;stroke-linecap:round;stroke-linejoin:round;stroke-miterlimit:9.8"
       id="path2"
       sodipodi:type="arc"
       sodipodi:cx="83.784424"
       sodipodi:cy="73.458748"
       sodipodi:rx="24.331757"
       sodipodi:ry="24.987488"
       d="m 108.11618,73.458748 c 0,13.800208 -10.893698,24.987488 -24.331756,24.987488 -13.438058,0 -24.331757,-11.18728 -24.331757,-24.987488 0,-13.800209 10.893699,-24.987488 24.331757,-24.987488 13.438058,0 24.331756,11.187279 24.331756,24.987488 z m 41.70123,0 c 0,13.800208 10.8937,24.987488 24.33176,24.987488 13.43806,0 24.33176,-11.18728 24.33176,-24.987488 0,-13.800209 -10.8937,-24.987488 -24.33176,-24.987488 -13.43806,0 -24.33176,11.187279 -24.33176,24.987488 z" />
    <path
       sodipodi:type="arc"
       style="fill:#3e3546;stroke:#2e222f;stroke-width:7.48802;stroke-linecap:round;stroke-linejoin:round;stroke-miterlimit:9.8"
       id="path10"
       sodipodi:cx="70.195358"
       sodipodi:cy="186.10539"
       sodipodi:rx="8.2180567"
       sodipodi:ry="39.295704"
       d="m 78.413415,186.10539 c 0,21.70242 -3.679349,39.29571 -8.218057,39.29571 -4.538707,0 -8.218056,-17.59329 -8.218056,-39.29571 0,-21.70242 3.679349,-39.2957 8.218056,-39.2957 4.538708,0 8.218057,17.59328 8.218057,39.2957 z m 101.106765,0 c 0,21.70242 3.67935,39.29571 8.21805,39.29571 4.53871,0 8.21806,-17.59329 8.21806,-39.29571 0,-21.70242 -3.67935,-39.2957 -8.21806,-39.2957 -4.5387,0 -8.21805,17.59328 -8.21805,39.2957 z" />
    <path
       style="fill:#f79617;stroke:#2e222f;stroke-width:8;stroke-linecap:round;stroke-linejoin:round;stroke-miterlimit:9.8"
       id="path6"
       sodipodi:type="arc"
       sodipodi:cx="125.22546"
       sodipodi:cy="97.697723"
       sodipodi:rx="20.355307"
       sodipodi:ry="11.102332"
       d="m 125.22461,86.595703 c -11.24193,0 -20.35352,4.969914 -20.35352,11.101563 0,6.131644 9.11159,11.103514 20.35352,11.103514 1.27804,0 2.52943,-0.0646 3.74219,-0.1875 1.21276,0.12289 2.46414,0.1875 3.74218,0.1875 11.24193,0 20.35352,-4.97187 20.35352,-11.103514 0,-6.131649 -9.11159,-11.101563 -20.35352,-11.101563 -1.27804,0 -2.52942,0.06461 -3.74218,0.1875 -1.21276,-0.122888 -2.46415,-0.1875 -3.74219,-0.1875 z" />
    <path
       style="fill:#2e222f;stroke:#2e222f;stroke-width:8;stroke-linecap:round;stroke-linejoin:round;stroke-miterlimit:9.8"
       id="path3"
       sodipodi:type="arc"
       sodipodi:cx="83.070091"
       sodipodi:cy="73.506706"
       sodipodi:rx="11.779141"
       sodipodi:ry="11.779141"
       d="m 94.849233,73.506706 c 0,6.50544 -5.273702,11.779142 -11.779142,11.779142 -6.50544,0 -11.779141,-5.273702 -11.779141,-11.779142 0,-6.50544 5.273701,-11.779141 11.779141,-11.779141 6.50544,0 11.779142,5.273701 11.779142,11.779141 z m 68.235127,0 c 0,6.50544 5.2737,11.779142 11.77914,11.779142 6.50544,0 11.77914,-5.273702 11.77914,-11.779142 0,-6.50544 -5.2737,-11.779141 -11.77914,-11.779141 -6.50544,0 -11.77914,5.273701 -11.77914,11.779141 z" />
    <path
       sodipodi:type="arc"
       style="fill:#ffffff;stroke:#ffffff;stroke-width:8;stroke-linecap:round;stroke-linejoin:round;stroke-miterlimit:9.8"
       id="path4"
       sodipodi:cx="79.623558"
       sodipodi:cy="66.451965"
       sodipodi:rx="4.2886505"
       sodipodi:ry="3.9593863"
       sodipodi:start="0"
       sodipodi:end="0.0063846973"
       sodipodi:arc-type="slice"
       d="m 83.912209,66.451965 c 0,0.0084 -3e-5,0.01685 -8.8e-5,0.02528 l -4.288563,-0.02528 z m 90.109171,0 c 0,0.0084 3e-5,0.01685 9e-5,0.02528 l 4.28856,-0.02528 z" />
    <path
       id="path11"
       style="fill:#3e3546;stroke:#2e222f;stroke-width:8;stroke-linecap:round;stroke-linejoin:round;stroke-miterlimit:9.8"
       d="m 125.72266,-12.992188 c -1.0475,0.0045 -2.06057,0.05062 -3.03125,0.140625 -13.4836,1.25033 -38.769464,9.8260756 -53.406254,22.4160161 -7.926591,6.8181139 -16.326172,24.1362559 -16.326172,26.7812499 0,12.086494 32.704552,22.154033 76.007816,24.363281 43.30326,-2.209248 76.00781,-12.276787 76.00781,-24.363281 0,-2.644994 -8.39958,-19.963136 -16.32617,-26.7812499 -14.63679,-12.5899405 -39.92265,-21.1656861 -53.40625,-22.4160161 -1.94136,-0.180021 -4.04703,-0.185953 -6.27539,-0.0293 -1.11418,-0.07833 -2.19664,-0.115839 -3.24414,-0.111329 z"
       inkscape:original-d="m 193.26534,37.678549 c 0,13.704794 5.48248,23.482067 -46.38756,23.482066 -51.870041,0 -93.919015,-11.109931 -93.919015,-24.814724 0,-2.644994 8.400445,-19.964073 16.327036,-26.7821866 14.63679,-12.5899405 39.922539,-21.1653954 53.406139,-22.4157254 23.39912,-2.169794 70.59021,20.8891484 70.5734,50.53057 z"
       sodipodi:nodetypes="sssass" />
  </g>
</svg>
