<?xml version="1.0" encoding="UTF-8" standalone="no"?>
<!-- Created with Inkscape (http://www.inkscape.org/) -->

<svg
   width="217.52275"
   height="240.90335"
   viewBox="0 0 217.52276 240.90335"
   version="1.1"
   id="svg1"
   inkscape:version="1.4 (86a8ad7, 2024-10-11)"
   sodipodi:docname="dew_flowers.svg"
   xmlns:inkscape="http://www.inkscape.org/namespaces/inkscape"
   xmlns:sodipodi="http://sodipodi.sourceforge.net/DTD/sodipodi-0.dtd"
   xmlns="http://www.w3.org/2000/svg"
   xmlns:svg="http://www.w3.org/2000/svg">
  <sodipodi:namedview
     id="namedview1"
     pagecolor="#ffffff"
     bordercolor="#000000"
     borderopacity="0.25"
     inkscape:showpageshadow="2"
     inkscape:pageopacity="0.0"
     inkscape:pagecheckerboard="0"
     inkscape:deskcolor="#2b2b2b"
     inkscape:document-units="px"
     inkscape:zoom="1.5917969"
     inkscape:cx="140.09325"
     inkscape:cy="137.26626"
     inkscape:window-width="1920"
     inkscape:window-height="1017"
     inkscape:window-x="1912"
     inkscape:window-y="-8"
     inkscape:window-maximized="1"
     inkscape:current-layer="layer1" />
  <defs
     id="defs1" />
  <g
     inkscape:label="Layer 1"
     inkscape:groupmode="layer"
     id="layer1"
     transform="translate(-50.871129,111.65801)">
    <path
       style="fill:none;stroke:#2e222f;stroke-width:8;stroke-linecap:round;stroke-linejoin:round;stroke-miterlimit:9.8"
       d="M 75.416429,-45.026149 C 114.72451,-120.73396 161.91106,9.6504507 143.26429,121.13826"
       id="path1"
       sodipodi:nodetypes="cc" />
    <path
       style="fill:none;stroke:#2e222f;stroke-width:8;stroke-linecap:round;stroke-linejoin:round;stroke-miterlimit:9.8"
       d="M 209.13408,-97.582721 C 141.67132,-159.175 160.31125,79.998928 159.29448,125.24534"
       id="path2"
       sodipodi:nodetypes="cc" />
    <path
       style="fill:none;stroke:#2e222f;stroke-width:8;stroke-linecap:round;stroke-linejoin:round;stroke-miterlimit:9.8"
       d="m 123.53338,-85.095507 c 53.78387,-64.733383 45.4103,160.619684 44.39353,205.866097"
       id="path2-8"
       sodipodi:nodetypes="cc" />
    <path
       style="fill:none;stroke:#2e222f;stroke-width:8;stroke-linecap:round;stroke-linejoin:round;stroke-miterlimit:9.8"
       d="m 176.61903,123.91268 c 2.11955,-65.545922 22.69641,-193.569973 69.14352,-163.728403"
       id="path3"
       sodipodi:nodetypes="cc" />
    <path
       id="path5"
       style="fill:#4d9be6;stroke:#2e222f;stroke-width:8.00002;stroke-linecap:round;stroke-linejoin:round;stroke-miterlimit:9.8"
       d="m 90.679829,25.415346 c 0,16.480438 -2.364835,30.337813 -16.69731,30.337814 -14.332475,0 -19.111379,-13.360035 -19.11138,-29.840473 0,-16.4804385 19.91607,-65.649041 19.91607,-65.649041 0,0 15.89262,48.6712615 15.89262,65.1517 z"
       sodipodi:nodetypes="ssscs" />
    <path
       id="path5-1"
       style="fill:#4d9be6;stroke:#2e222f;stroke-width:8.00002;stroke-linecap:round;stroke-linejoin:round;stroke-miterlimit:9.8"
       d="m 264.39387,27.782435 c 0,16.480438 -2.36483,30.337813 -16.69731,30.337814 -14.33247,0 -19.11137,-13.360035 -19.11138,-29.840473 0,-16.480438 19.91607,-65.649041 19.91607,-65.649041 0,0 15.89262,48.671262 15.89262,65.1517 z"
       sodipodi:nodetypes="ssscs" />
    <path
       id="path5-6"
       style="fill:#4d9be6;stroke:#2e222f;stroke-width:8.00002;stroke-linecap:round;stroke-linejoin:round;stroke-miterlimit:9.8"
       d="m 228.24308,-32.612491 c 0,16.480438 -2.36484,30.3378128 -16.69731,30.3378138 -14.33248,0 -19.11138,-13.3600348 -19.11138,-29.8404728 0,-16.480439 19.91607,-65.649041 19.91607,-65.649041 0,0 15.89262,48.671261 15.89262,65.1517 z"
       sodipodi:nodetypes="ssscs" />
    <path
       id="path5-6-2"
       style="fill:#4d9be6;stroke:#2e222f;stroke-width:8.00002;stroke-linecap:round;stroke-linejoin:round;stroke-miterlimit:9.8"
       d="m 141.02344,-20.764634 c 0,16.4804379 -2.36484,30.3378127 -16.69731,30.3378137 -14.33248,0 -19.11138,-13.3600348 -19.11138,-29.8404727 0,-16.480439 19.91607,-65.649041 19.91607,-65.649041 0,0 15.89262,48.671261 15.89262,65.1517 z"
       sodipodi:nodetypes="ssscs" />
  </g>
</svg>
