<?xml version="1.0" encoding="UTF-8" standalone="no"?>
<!-- Created with Inkscape (http://www.inkscape.org/) -->

<svg
   width="310.49652"
   height="137.75861"
   viewBox="0 0 310.49653 137.75861"
   version="1.1"
   id="svg1"
   inkscape:version="1.4 (86a8ad7, 2024-10-11)"
   sodipodi:docname="crescent_bush.svg"
   xmlns:inkscape="http://www.inkscape.org/namespaces/inkscape"
   xmlns:sodipodi="http://sodipodi.sourceforge.net/DTD/sodipodi-0.dtd"
   xmlns="http://www.w3.org/2000/svg"
   xmlns:svg="http://www.w3.org/2000/svg">
  <sodipodi:namedview
     id="namedview1"
     pagecolor="#ffffff"
     bordercolor="#000000"
     borderopacity="0.25"
     inkscape:showpageshadow="2"
     inkscape:pageopacity="0.0"
     inkscape:pagecheckerboard="0"
     inkscape:deskcolor="#2b2b2b"
     inkscape:document-units="px"
     inkscape:zoom="0.79589843"
     inkscape:cx="228.67239"
     inkscape:cy="-118.73374"
     inkscape:window-width="1920"
     inkscape:window-height="1017"
     inkscape:window-x="1912"
     inkscape:window-y="-8"
     inkscape:window-maximized="1"
     inkscape:current-layer="layer1" />
  <defs
     id="defs1" />
  <g
     inkscape:label="Layer 1"
     inkscape:groupmode="layer"
     id="layer1"
     transform="translate(-28.203119,-32.646257)">
    <path
       id="path2"
       style="fill:#d5e04b;stroke:#2e222f;stroke-width:8;stroke-linecap:round;stroke-linejoin:round;stroke-miterlimit:9.8"
       d="M 130.18112,72.665988 A 45.891988,54.144413 0 0 1 84.410348,124.81859 45.891988,54.144413 0 0 1 38.702528,73.711049 52.417915,61.84385 0 0 0 32.203119,103.21083 52.417915,61.84385 0 0 0 84.620458,165.054 52.417915,61.84385 0 0 0 137.03873,103.21083 52.417915,61.84385 0 0 0 130.18112,72.665988 Z" />
    <path
       id="path2-5"
       style="fill:#d5e04b;stroke:#2e222f;stroke-width:8;stroke-linecap:round;stroke-linejoin:round;stroke-miterlimit:9.8"
       d="M 177.197,50.615193 A 45.891988,54.144413 0 0 1 131.42623,102.7678 45.891988,54.144413 0 0 1 85.718408,51.660254 52.417915,61.84385 0 0 0 79.218998,81.160035 52.417915,61.84385 0 0 0 131.63634,143.00321 52.417915,61.84385 0 0 0 184.05461,81.160035 52.417915,61.84385 0 0 0 177.197,50.615193 Z" />
    <path
       id="path2-1"
       style="fill:#d5e04b;stroke:#2e222f;stroke-width:8;stroke-linecap:round;stroke-linejoin:round;stroke-miterlimit:9.8"
       d="M 147.68467,48.825769 A 45.891988,54.144413 0 0 1 101.9139,100.97837 45.891988,54.144413 0 0 1 56.206077,49.87083 a 52.417915,61.84385 0 0 0 -6.49941,29.49978 52.417915,61.84385 0 0 0 52.417343,61.84317 52.417915,61.84385 0 0 0 52.41827,-61.84317 52.417915,61.84385 0 0 0 -6.85761,-30.544841 z" />
    <path
       id="path2-6"
       style="fill:#d5e04b;stroke:#2e222f;stroke-width:8;stroke-linecap:round;stroke-linejoin:round;stroke-miterlimit:9.8"
       d="m 223.70616,73.136516 a 45.891988,54.144413 0 0 1 -45.77077,52.152604 45.891988,54.144413 0 0 1 -45.70782,-51.107543 52.417915,61.84385 0 0 0 -6.49941,29.499783 52.417915,61.84385 0 0 0 52.41734,61.84317 52.417915,61.84385 0 0 0 52.41827,-61.84317 52.417915,61.84385 0 0 0 -6.85761,-30.544844 z" />
    <path
       id="path2-8"
       style="fill:#d5e04b;stroke:#2e222f;stroke-width:8;stroke-linecap:round;stroke-linejoin:round;stroke-miterlimit:9.8"
       d="M 214.58749,36.645014 A 45.891988,54.144413 0 0 1 168.81672,88.797616 45.891988,54.144413 0 0 1 123.1089,37.690075 52.417915,61.84385 0 0 0 116.60949,67.189856 52.417915,61.84385 0 0 0 169.02683,129.03303 52.417915,61.84385 0 0 0 221.4451,67.189856 52.417915,61.84385 0 0 0 214.58749,36.645014 Z" />
    <path
       id="path2-3"
       style="fill:#d5e04b;stroke:#2e222f;stroke-width:8;stroke-linecap:round;stroke-linejoin:round;stroke-miterlimit:9.8"
       d="m 277.72643,73.128409 a 45.891988,54.144413 0 0 1 -45.77077,52.152601 45.891988,54.144413 0 0 1 -45.70782,-51.10754 52.417915,61.84385 0 0 0 -6.49941,29.49978 52.417915,61.84385 0 0 0 52.41734,61.84317 52.417915,61.84385 0 0 0 52.41827,-61.84317 52.417915,61.84385 0 0 0 -6.85761,-30.544841 z" />
    <path
       id="path2-0"
       style="fill:#d5e04b;stroke:#2e222f;stroke-width:8;stroke-linecap:round;stroke-linejoin:round;stroke-miterlimit:9.8"
       d="M 305.95766,48.945824 A 45.891988,54.144413 0 0 1 260.18689,101.09843 45.891988,54.144413 0 0 1 214.47907,49.990885 52.417915,61.84385 0 0 0 207.97966,79.490666 52.417915,61.84385 0 0 0 260.397,141.33384 52.417915,61.84385 0 0 0 312.81527,79.490666 52.417915,61.84385 0 0 0 305.95766,48.945824 Z" />
    <path
       id="path2-83"
       style="fill:#d5e04b;stroke:#2e222f;stroke-width:8;stroke-linecap:round;stroke-linejoin:round;stroke-miterlimit:9.8"
       d="m 327.84204,74.016847 a 45.891988,54.144413 0 0 1 -45.77077,52.152603 45.891988,54.144413 0 0 1 -45.70782,-51.107542 52.417915,61.84385 0 0 0 -6.49941,29.499782 52.417915,61.84385 0 0 0 52.41734,61.84317 52.417915,61.84385 0 0 0 52.41827,-61.84317 52.417915,61.84385 0 0 0 -6.85761,-30.544843 z" />
  </g>
</svg>
