<?xml version="1.0" encoding="UTF-8" standalone="no"?>
<!-- Created with Inkscape (http://www.inkscape.org/) -->

<svg
   width="138.5649"
   height="212.48776"
   viewBox="0 0 138.56489 212.48776"
   version="1.1"
   id="svg1"
   inkscape:version="1.4 (86a8ad7, 2024-10-11)"
   sodipodi:docname="lil_flipper.svg"
   xmlns:inkscape="http://www.inkscape.org/namespaces/inkscape"
   xmlns:sodipodi="http://sodipodi.sourceforge.net/DTD/sodipodi-0.dtd"
   xmlns="http://www.w3.org/2000/svg"
   xmlns:svg="http://www.w3.org/2000/svg">
  <sodipodi:namedview
     id="namedview1"
     pagecolor="#ffffff"
     bordercolor="#000000"
     borderopacity="0.25"
     inkscape:showpageshadow="2"
     inkscape:pageopacity="0.0"
     inkscape:pagecheckerboard="0"
     inkscape:deskcolor="#2b2b2b"
     inkscape:document-units="px"
     inkscape:zoom="1.1255704"
     inkscape:cx="62.19069"
     inkscape:cy="142.59437"
     inkscape:window-width="1920"
     inkscape:window-height="1017"
     inkscape:window-x="1912"
     inkscape:window-y="-8"
     inkscape:window-maximized="1"
     inkscape:current-layer="layer1" />
  <defs
     id="defs1">
    <inkscape:path-effect
       effect="mirror_symmetry"
       start_point="129.55318,28.425144"
       end_point="129.55318,240.91291"
       center_point="129.55318,134.66903"
       id="path-effect2"
       is_visible="true"
       lpeversion="1.2"
       lpesatellites=""
       mode="vertical"
       discard_orig_path="false"
       fuse_paths="true"
       oposite_fuse="false"
       split_items="false"
       split_open="false"
       link_styles="false" />
  </defs>
  <g
     inkscape:label="Layer 1"
     inkscape:groupmode="layer"
     id="layer1"
     inkscape:path-effect="#path-effect2"
     transform="translate(-60.270732,-28.425144)">
    <path
       sodipodi:type="arc"
       style="fill:#f79617;stroke:#2e222f;stroke-width:8;stroke-linecap:round;stroke-linejoin:round;stroke-miterlimit:9.8"
       id="path9"
       sodipodi:cx="100.87053"
       sodipodi:cy="228.27487"
       sodipodi:rx="22.021179"
       sodipodi:ry="8.6380367"
       d="m 122.89171,228.27487 c 0,4.77066 -9.85922,8.63804 -22.02118,8.63804 -12.161962,0 -22.02118,-3.86738 -22.02118,-8.63804 0,-4.77065 9.859218,-8.63803 22.02118,-8.63803 12.16196,0 22.02118,3.86738 22.02118,8.63803 z m 13.32294,0 c 0,4.77066 9.85922,8.63804 22.02118,8.63804 12.16196,0 22.02118,-3.86738 22.02118,-8.63804 0,-4.77065 -9.85922,-8.63803 -22.02118,-8.63803 -12.16196,0 -22.02118,3.86738 -22.02118,8.63803 z" />
    <path
       sodipodi:type="arc"
       style="fill:#3e3546;stroke:#2e222f;stroke-width:8;stroke-linecap:round;stroke-linejoin:round;stroke-miterlimit:9.8"
       id="path7"
       sodipodi:cx="127.23018"
       sodipodi:cy="190.63251"
       sodipodi:rx="54.337791"
       sodipodi:ry="41.410931"
       d="m 127.23047,149.2207 c -30.009935,0 -54.337892,18.54149 -54.337892,41.41211 0,22.87063 24.327957,41.41016 54.337892,41.41016 0.77826,0 1.55197,-0.0124 2.32226,-0.0371 0.7703,0.0247 1.54596,0.0371 2.32422,0.0371 30.00994,0 54.33789,-18.53953 54.33789,-41.41016 0,-22.87062 -24.32795,-41.41211 -54.33789,-41.41211 -0.77826,0 -1.55392,0.0124 -2.32422,0.0371 -0.77029,-0.0247 -1.544,-0.0371 -2.32226,-0.0371 z" />
    <path
       sodipodi:type="arc"
       style="fill:#ffffff;stroke:#2e222f;stroke-width:8;stroke-linecap:round;stroke-linejoin:round;stroke-miterlimit:9.8"
       id="path8"
       sodipodi:cx="127.23018"
       sodipodi:cy="201.53415"
       sodipodi:rx="51.132565"
       sodipodi:ry="30.509264"
       d="m 127.23047,171.02539 c -28.239737,0 -51.132814,13.65801 -51.132814,30.50781 0,16.8498 22.893077,30.50977 51.132814,30.50977 0.77852,0 1.55224,-0.0107 2.32226,-0.0312 0.77003,0.0205 1.5457,0.0312 2.32422,0.0312 28.23974,0 51.13086,-13.65997 51.13086,-30.50977 0,-16.8498 -22.89112,-30.50781 -51.13086,-30.50781 -0.77852,0 -1.55419,0.0107 -2.32422,0.0312 -0.77002,-0.0205 -1.54374,-0.0312 -2.32226,-0.0312 z" />
    <path
       style="fill:#3e3546;stroke:#2e222f;stroke-width:8.25442;stroke-linecap:round;stroke-linejoin:round;stroke-miterlimit:9.8"
       id="path1"
       sodipodi:type="arc"
       sodipodi:cx="128.65022"
       sodipodi:cy="120.58138"
       sodipodi:rx="59.872791"
       sodipodi:ry="60.115578"
       d="m 128.65039,60.464844 c -33.066829,0 -59.873046,26.91627 -59.873046,60.117186 0,33.20092 26.806217,60.11524 59.873046,60.11524 0.30151,0 0.60189,-0.003 0.90234,-0.008 0.30046,0.004 0.60279,0.008 0.9043,0.008 33.06683,0 59.87109,-26.91432 59.87109,-60.11524 0,-33.200916 -26.80426,-60.117186 -59.87109,-60.117186 -0.30151,0 -0.60384,0.0034 -0.9043,0.0078 -0.30045,-0.0045 -0.60083,-0.0078 -0.90234,-0.0078 z" />
    <path
       id="path5"
       style="display:inline;fill:#ffffff;stroke:#2e222f;stroke-width:8;stroke-linecap:round;stroke-linejoin:round;stroke-miterlimit:9.8"
       d="m 100.44336,78.472656 c -15.870787,-2e-6 -27.230469,25.871024 -27.230469,48.832034 -10e-7,22.96101 19.034015,34.77107 33.066409,42.18554 4.85627,2.56597 9.99219,5.55904 23.27343,5.32618 13.28125,0.23286 18.41717,-2.76021 23.27344,-5.32618 14.03239,-7.41447 33.06641,-19.22453 33.06641,-42.18554 0,-22.96101 -11.35773,-48.832036 -27.22852,-48.832034 -8.26219,3e-6 -19.87597,13.848453 -29.11133,30.365234 -9.23535,-16.516781 -20.84718,-30.365231 -29.10937,-30.365234 z"
       inkscape:original-d="m 144.54678,152.52887 c 0,14.85879 1.83455,21.93203 -14.67495,22.28219 -13.51814,0.28672 -18.69668,-2.73463 -23.5916,-5.32102 -14.032391,-7.41447 -33.066564,-19.22401 -33.066563,-42.18502 0,-22.96101 11.358657,-48.832138 27.229443,-48.832136 15.87078,6e-6 44.10367,51.094986 44.10367,74.055986 z"
       sodipodi:nodetypes="ssssss" />
    <path
       style="fill:#ffffff;stroke:#2e222f;stroke-width:8;stroke-linecap:round;stroke-linejoin:round;stroke-miterlimit:9.8"
       id="path2"
       sodipodi:type="arc"
       sodipodi:cx="98.884048"
       sodipodi:cy="113.9181"
       sodipodi:rx="24.331757"
       sodipodi:ry="24.987488"
       d="m 123.21581,113.9181 c 0,13.80021 -10.8937,24.98749 -24.331762,24.98749 -13.438058,0 -24.331756,-11.18728 -24.331756,-24.98749 0,-13.80021 10.893698,-24.987489 24.331756,-24.987489 13.438062,0 24.331762,11.187279 24.331762,24.987489 z m 12.67474,0 c 0,13.80021 10.8937,24.98749 24.33176,24.98749 13.43806,0 24.33176,-11.18728 24.33176,-24.98749 0,-13.80021 -10.8937,-24.987489 -24.33176,-24.987489 -13.43806,0 -24.33176,11.187279 -24.33176,24.987489 z" />
    <path
       sodipodi:type="arc"
       style="fill:#3e3546;stroke:#2e222f;stroke-width:9.63221;stroke-linecap:round;stroke-linejoin:round;stroke-miterlimit:9.8"
       id="path10"
       sodipodi:cx="73.304893"
       sodipodi:cy="198.54353"
       sodipodi:rx="8.2180567"
       sodipodi:ry="23.748032"
       d="m 81.52295,198.54353 c 0,13.11568 -3.679349,23.74803 -8.218057,23.74803 -4.538707,0 -8.218056,-10.63235 -8.218056,-23.74803 0,-13.11567 3.679349,-23.74803 8.218056,-23.74803 4.538708,0 8.218057,10.63236 8.218057,23.74803 z m 96.06046,0 c 0,13.11568 3.67935,23.74803 8.21806,23.74803 4.5387,0 8.21805,-10.63235 8.21805,-23.74803 0,-13.11567 -3.67935,-23.74803 -8.21805,-23.74803 -4.53871,0 -8.21806,10.63236 -8.21806,23.74803 z" />
    <path
       style="fill:#f79617;stroke:#2e222f;stroke-width:8;stroke-linecap:round;stroke-linejoin:round;stroke-miterlimit:9.8"
       id="path6"
       sodipodi:type="arc"
       sodipodi:cx="126.94149"
       sodipodi:cy="147.45007"
       sodipodi:rx="26.957727"
       sodipodi:ry="15.544412"
       d="m 126.94141,131.90625 c -14.88835,0 -26.957035,6.95803 -26.957035,15.54297 0,8.58494 12.068685,15.54492 26.957035,15.54492 0.88107,0 1.75191,-0.0246 2.61132,-0.0723 0.85942,0.0476 1.73026,0.0723 2.61133,0.0723 14.88834,0 26.95899,-6.95998 26.95899,-15.54492 0,-8.58494 -12.07065,-15.54297 -26.95899,-15.54297 -0.88107,0 -1.75191,0.0246 -2.61133,0.0723 -0.85941,-0.0476 -1.73025,-0.0723 -2.61132,-0.0723 z" />
    <path
       style="fill:#2e222f;stroke:#2e222f;stroke-width:8;stroke-linecap:round;stroke-linejoin:round;stroke-miterlimit:9.8"
       id="path3"
       sodipodi:type="arc"
       sodipodi:cx="98.169716"
       sodipodi:cy="113.96606"
       sodipodi:rx="11.779141"
       sodipodi:ry="11.779141"
       d="m 109.94886,113.96606 c 0,6.50544 -5.2737,11.77914 -11.779144,11.77914 -6.50544,0 -11.779142,-5.2737 -11.779142,-11.77914 0,-6.50544 5.273702,-11.77914 11.779142,-11.77914 6.505444,0 11.779144,5.2737 11.779144,11.77914 z m 39.20864,0 c 0,6.50544 5.2737,11.77914 11.77914,11.77914 6.50544,0 11.77915,-5.2737 11.77915,-11.77914 0,-6.50544 -5.27371,-11.77914 -11.77915,-11.77914 -6.50544,0 -11.77914,5.2737 -11.77914,11.77914 z" />
    <path
       sodipodi:type="arc"
       style="fill:#ffffff;stroke:#ffffff;stroke-width:8;stroke-linecap:round;stroke-linejoin:round;stroke-miterlimit:9.8"
       id="path4"
       sodipodi:cx="95.615456"
       sodipodi:cy="105.98748"
       sodipodi:rx="4.2886505"
       sodipodi:ry="3.9593863"
       sodipodi:start="0"
       sodipodi:end="0.0063846973"
       sodipodi:arc-type="slice"
       d="m 99.904106,105.98748 c 0,0.008 -2.9e-5,0.0168 -8.7e-5,0.0253 l -4.288563,-0.0253 z m 59.298144,0 c 0,0.008 3e-5,0.0168 9e-5,0.0253 l 4.28856,-0.0253 z" />
  </g>
  <ellipse
     style="fill:#c32454;stroke:#2e222f;stroke-width:8;stroke-linecap:round;stroke-linejoin:round;stroke-miterlimit:9.8"
     id="path11"
     cx="71.743271"
     cy="41.765923"
     rx="62.821625"
     ry="20.757441" />
  <path
     id="path12"
     style="fill:#c32454;stroke:#2e222f;stroke-width:8;stroke-linecap:round;stroke-linejoin:round;stroke-miterlimit:9.8"
     d="m 70.730935,4 a 39.3134,32.872223 0 0 0 -39.3125,32.87305 39.3134,32.872223 0 0 0 0.265625,3.10937 h 78.0957 A 39.3134,32.872223 0 0 0 110.04539,36.87305 39.3134,32.872223 0 0 0 70.730935,4 Z" />
</svg>
