<?xml version="1.0" encoding="UTF-8" standalone="no"?>
<!-- Created with Inkscape (http://www.inkscape.org/) -->

<svg
   width="221.33978"
   height="206.08778"
   viewBox="0 0 221.33979 206.08779"
   version="1.1"
   id="svg1"
   inkscape:version="1.4 (86a8ad7, 2024-10-11)"
   sodipodi:docname="power_flower.svg"
   xmlns:inkscape="http://www.inkscape.org/namespaces/inkscape"
   xmlns:sodipodi="http://sodipodi.sourceforge.net/DTD/sodipodi-0.dtd"
   xmlns="http://www.w3.org/2000/svg"
   xmlns:svg="http://www.w3.org/2000/svg">
  <sodipodi:namedview
     id="namedview1"
     pagecolor="#ffffff"
     bordercolor="#000000"
     borderopacity="0.25"
     inkscape:showpageshadow="2"
     inkscape:pageopacity="0.0"
     inkscape:pagecheckerboard="0"
     inkscape:deskcolor="#2b2b2b"
     inkscape:document-units="px"
     inkscape:zoom="1.5917969"
     inkscape:cx="91.720244"
     inkscape:cy="81.3546"
     inkscape:window-width="1920"
     inkscape:window-height="1017"
     inkscape:window-x="1912"
     inkscape:window-y="-8"
     inkscape:window-maximized="1"
     inkscape:current-layer="layer1" />
  <defs
     id="defs1" />
  <g
     inkscape:label="Layer 1"
     inkscape:groupmode="layer"
     id="layer1"
     transform="translate(-46.866802,78.175099)">
    <path
       style="fill:none;stroke:#2e222f;stroke-width:8;stroke-linecap:round;stroke-linejoin:round;stroke-miterlimit:9.8"
       d="m 103.68637,20.937042 c 0.31411,1.256442 38.9497,38.321473 38.9497,38.321473 l -1.25644,57.482195"
       id="path1" />
    <path
       style="fill:none;stroke:#2e222f;stroke-width:8;stroke-linecap:round;stroke-linejoin:round;stroke-miterlimit:9.8"
       d="m 115.31904,2.4684662 c 0.31411,1.256442 38.9497,38.3214728 38.9497,38.3214728 l -1.25644,57.482203"
       id="path1-4" />
    <path
       style="fill:none;stroke:#2e222f;stroke-width:8;stroke-linecap:round;stroke-linejoin:round;stroke-miterlimit:9.8"
       d="m 168.29972,-7.1189121 -7.85659,46.3828021 -1.77687,79.07102"
       id="path2"
       sodipodi:nodetypes="ccc" />
    <path
       style="fill:none;stroke:#2e222f;stroke-width:8;stroke-linecap:round;stroke-linejoin:round;stroke-miterlimit:9.8"
       d="m 176.61903,123.91268 0.88844,-63.523345 52.54956,-35.498309"
       id="path3"
       sodipodi:nodetypes="ccc" />
    <path
       style="fill:none;stroke:#2e222f;stroke-width:8;stroke-linecap:round;stroke-linejoin:round;stroke-miterlimit:9.8"
       d="M 172.39634,99.452085 173.28478,35.928738 225.83434,0.43042915"
       id="path3-1"
       sodipodi:nodetypes="ccc" />
    <path
       sodipodi:type="star"
       style="fill:#e83b3b;stroke:#2e222f;stroke-width:8;stroke-linecap:round;stroke-linejoin:round;stroke-miterlimit:9.8"
       id="path4"
       inkscape:flatsided="false"
       sodipodi:sides="7"
       sodipodi:cx="100.10309"
       sodipodi:cy="-24.659142"
       sodipodi:r1="49.704933"
       sodipodi:r2="24.852468"
       sodipodi:arg1="1.2090671"
       sodipodi:arg2="1.657866"
       inkscape:rounded="0"
       inkscape:randomized="0"
       d="M 117.69327,21.8292 97.941925,0.09918158 74.724339,18.078423 l 4.67445,-28.990668 -28.532666,-6.942366 25.580289,-14.420754 -12.362066,-26.636231 27.223649,11.008283 13.117425,-26.272471 8.36704,28.147858 28.71923,-6.125004 -16.79012,24.091522 22.69487,18.6347147 -29.30398,1.8937792 z"
       inkscape:transform-center-x="0.96180851"
       inkscape:transform-center-y="-1.5141508" />
    <path
       sodipodi:type="star"
       style="fill:#e83b3b;stroke:#2e222f;stroke-width:8;stroke-linecap:round;stroke-linejoin:round;stroke-miterlimit:9.8"
       id="path5"
       inkscape:flatsided="false"
       sodipodi:sides="7"
       sodipodi:cx="93.192657"
       sodipodi:cy="33.765396"
       sodipodi:r1="22.519768"
       sodipodi:r2="11.259885"
       sodipodi:arg1="1.1695675"
       sodipodi:arg2="1.6183665"
       inkscape:rounded="0"
       inkscape:randomized="0"
       d="m 101.98775,54.496684 -9.330525,-9.484141 -10.18929,8.55488 1.597512,-13.208163 -13.041393,-2.632428 11.322591,-6.98617 -6.073061,-11.837463 12.521527,4.496552 5.468411,-12.128647 4.291498,12.593278 12.89206,-3.286712 -7.17012,11.207009 10.60772,8.030183 -13.23249,1.381634 z"
       inkscape:transform-center-x="0.23828984"
       inkscape:transform-center-y="-0.88150225"
       transform="translate(4.3975459,-15.705521)" />
    <path
       sodipodi:type="star"
       style="fill:#e83b3b;stroke:#2e222f;stroke-width:8;stroke-linecap:round;stroke-linejoin:round;stroke-miterlimit:9.8"
       id="path6"
       inkscape:flatsided="false"
       sodipodi:sides="7"
       sodipodi:cx="157.27119"
       sodipodi:cy="-46.01865"
       sodipodi:r1="45.388683"
       sodipodi:r2="22.694344"
       sodipodi:arg1="0.84415399"
       sodipodi:arg2="1.2929529"
       inkscape:rounded="0"
       inkscape:randomized="0"
       d="m 187.42579,-12.094725 -23.92994,-12.099928 -13.94636,22.9030396 -5.45997,-26.2533626 -26.60174,3.376103 17.12147,-20.637479 -19.22545,-18.693108 26.81009,0.518847 2.62799,-26.686028 16.31017,21.284471 22.5025,-14.583825 -6.47165,26.022454 25.43217,8.500297 -24.38018,11.164999 z"
       inkscape:transform-center-x="-1.7182416"
       inkscape:transform-center-y="0.53952303"
       transform="translate(6.2822085,27.013497)" />
    <path
       sodipodi:type="star"
       style="fill:#e83b3b;stroke:#2e222f;stroke-width:8;stroke-linecap:round;stroke-linejoin:round;stroke-miterlimit:9.8"
       id="path7"
       inkscape:flatsided="false"
       sodipodi:sides="7"
       sodipodi:cx="211.29819"
       sodipodi:cy="-19.633375"
       sodipodi:r1="38.460255"
       sodipodi:r2="19.230129"
       sodipodi:arg1="0.90115738"
       sodipodi:arg2="1.3499563"
       inkscape:rounded="0"
       inkscape:randomized="0"
       d="M 235.17058,10.521227 215.51053,-0.87027295 202.60656,17.8319 l -3.3516,-22.4733269 -22.66744,1.5718841 15.48066,-16.6322812 -15.36187,-16.742066 22.65568,1.733213 3.51151,-22.448899 12.7705,18.793561 19.74064,-11.251253 -6.73112,21.701975 21.10468,8.418816 -21.16407,8.268359 z"
       inkscape:transform-center-x="-1.8746703"
       inkscape:transform-center-y="-0.03046272"
       transform="translate(14.44908,11.307975)" />
    <path
       sodipodi:type="star"
       style="fill:#e83b3b;stroke:#2e222f;stroke-width:8;stroke-linecap:round;stroke-linejoin:round;stroke-miterlimit:9.8"
       id="path8"
       inkscape:flatsided="false"
       sodipodi:sides="7"
       sodipodi:cx="204.38776"
       sodipodi:cy="19.316319"
       sodipodi:r1="27.0208"
       sodipodi:r2="13.510401"
       sodipodi:arg1="0.95054684"
       sodipodi:arg2="1.3993458"
       inkscape:rounded="0"
       inkscape:randomized="0"
       d="m 220.09328,41.304048 -13.40049,-8.675414 -9.7035,12.67588 -1.57236,-15.885955 -15.96043,0.31678 11.43979,-11.134048 -10.19884,-12.2808618 15.83755,2.0020239 3.24269,-15.630764 8.3093,13.6305308 14.24241,-7.21038199 -5.47601,14.99497009 14.5173,6.639565 -15.13778,5.067891 z"
       inkscape:transform-center-x="-1.0258365"
       inkscape:transform-center-y="-0.31821703"
       transform="translate(18.846625,1.2564417)" />
  </g>
</svg>
